<?xml version="1.0" ?><svg height="32px" version="1.1" viewBox="0 0 32 32" width="32px" xmlns="http://www.w3.org/2000/svg" xmlns:sketch="http://www.bohemiancoding.com/sketch/ns" xmlns:xlink="http://www.w3.org/1999/xlink"><title/><desc/><defs/><g fill="none" fill-rule="evenodd" id="Page-1" stroke="none" stroke-width="1"><g fill="#929292" id="icon-69-document-text"><path d="M19,3 L9.0085302,3 C7.8992496,3 7,3.89833832 7,5.00732994 L7,27.9926701 C7,29.1012878 7.89092539,30 8.99742191,30 L24.0025781,30 C25.1057238,30 26,29.1090746 26,28.0025781 L26,11 L21.0059191,11 C19.8980806,11 19,10.1132936 19,9.00189865 L19,3 L19,3 Z M10,6 L10,7 L10,8 L11,8 L11,7 L12,7 L12,11 L13,11 L13,7 L14,7 L14,8 L15,8 L15,7 L15,6 L10,6 L10,6 Z M20,3 L20,8.99707067 C20,9.55097324 20.4509752,10 20.990778,10 L26,10 L20,3 L20,3 Z M10,16 L10,17 L23,17 L23,16 L10,16 L10,16 Z M10,13 L10,14 L23,14 L23,13 L10,13 L10,13 Z M10,19 L10,20 L23,20 L23,19 L10,19 L10,19 Z M10,22 L10,23 L23,23 L23,22 L10,22 L10,22 Z M10,25 L10,26 L23,26 L23,25 L10,25 L10,25 Z" id="document-text"/></g></g></svg>